<svg width="22" height="65" viewBox="0 0 22 65" fill="none" xmlns="http://www.w3.org/2000/svg">
<path fill-rule="evenodd" clip-rule="evenodd" d="M10.502 61C10.8998 61 11.2813 60.842 11.5626 60.5607C11.8439 60.2794 12.002 59.8978 12.002 59.5L12.3998 1.49997C12.3998 1.10215 12.2417 0.720612 11.9604 0.439308C11.6791 0.158005 11.2976 -3.05176e-05 10.8998 -3.05176e-05C10.502 -3.05176e-05 10.1204 0.158005 9.83912 0.439308C9.55781 0.720612 9.39978 1.10215 9.39978 1.49997L9.00195 59.5C9.00195 59.8978 9.15999 60.2794 9.44129 60.5607C9.7226 60.842 10.1041 61 10.502 61Z" fill="#34364A"/>
<path fill-rule="evenodd" clip-rule="evenodd" d="M9.43989 63.562C9.57923 63.7017 9.74476 63.8125 9.92699 63.8881C10.1092 63.9638 10.3046 64.0027 10.5019 64.0027C10.6992 64.0027 10.8946 63.9638 11.0768 63.8881C11.259 63.8125 11.4246 63.7017 11.5639 63.562L20.5639 54.562C20.8456 54.2803 21.0038 53.8983 21.0038 53.5C21.0038 53.1017 20.8456 52.7197 20.5639 52.438C20.2822 52.1563 19.9002 51.9981 19.5019 51.9981C19.1036 51.9981 18.7216 52.1563 18.4399 52.438L10.5019 60.379L2.5639 52.438C2.28224 52.1563 1.90022 51.9981 1.5019 51.9981C1.10357 51.9981 0.721555 52.1563 0.439895 52.438C0.158235 52.7197 0 53.1017 0 53.5C0 53.8983 0.158235 54.2803 0.439895 54.562L9.43989 63.562Z" fill="#34364A"/>
</svg>
