<svg width="53" height="54" viewBox="0 0 53 54" fill="none" xmlns="http://www.w3.org/2000/svg">
<g clip-path="url(#clip0)" filter="url(#filter0_d)">
<path d="M34.2761 9.65408L4.08813 39.842L9.64291 45.3967L39.8309 15.2089L34.2761 9.65408ZM29.5404 18.1324L34.2761 13.3966L36.0883 15.2089L31.3526 19.9446L29.5404 18.1324Z" fill="#FFED01"/>
<path d="M43.4227 4.01446L40.113 7.32413L41.9843 9.19539L45.294 5.88572L43.4227 4.01446Z" fill="#FFED01"/>
<path d="M41.5539 22.6202L39.6826 24.4914L43.0547 27.8635L44.9259 25.9922L41.5539 22.6202Z" fill="#FFED01"/>
<path d="M23.3176 4.38268L21.4463 6.25394L24.7974 9.60505L26.6687 7.73379L23.3176 4.38268Z" fill="#FFED01"/>
<path d="M48.8889 14.7992H44.1174V17.4457H48.8889H48.9119V14.7992H48.8889Z" fill="#FFED01"/>
<path d="M31.8628 0.398311V5.1698H34.5093V0.398311V0.396729L31.8628 0.398311Z" fill="#FFED01"/>
</g>
<defs>
<filter id="filter0_d" x="0" y="0.396729" width="53" height="53" filterUnits="userSpaceOnUse" color-interpolation-filters="sRGB">
<feFlood flood-opacity="0" result="BackgroundImageFix"/>
<feColorMatrix in="SourceAlpha" type="matrix" values="0 0 0 0 0 0 0 0 0 0 0 0 0 0 0 0 0 0 127 0"/>
<feOffset dy="4"/>
<feGaussianBlur stdDeviation="2"/>
<feColorMatrix type="matrix" values="0 0 0 0 0 0 0 0 0 0 0 0 0 0 0 0 0 0 0.25 0"/>
<feBlend mode="normal" in2="BackgroundImageFix" result="effect1_dropShadow"/>
<feBlend mode="normal" in="SourceGraphic" in2="effect1_dropShadow" result="shape"/>
</filter>
<clipPath id="clip0">
<rect width="45" height="45" fill="white" transform="translate(4 0.396729)"/>
</clipPath>
</defs>
</svg>
