<svg width="45" height="46" viewBox="0 0 45 46" fill="none" xmlns="http://www.w3.org/2000/svg">
<g clip-path="url(#clip0)">
<path d="M37.3688 39.753C33.3937 43.278 28.2 45.3967 22.5 45.3967C10.0875 45.3967 0 35.3092 0 22.8967C0 10.953 9.3375 1.16547 21.0938 0.452972V9.86547C14.5125 10.5592 9.375 16.1467 9.375 22.8967C9.375 30.1342 15.2625 36.0217 22.5 36.0217C25.6125 36.0217 28.4812 34.9342 30.7312 33.1155L37.3688 39.753Z" fill="#FFED01"/>
<path d="M44.9437 24.303C44.6437 29.4405 42.6 34.128 39.3562 37.7655L32.7188 31.128C34.2562 29.2342 35.2687 26.8717 35.5312 24.303H44.9437Z" fill="#FFED01"/>
<path d="M44.9437 21.4905H35.5312C34.8937 15.378 30.0187 10.503 23.9062 9.86547V0.452972C35.1937 1.12797 44.2687 10.203 44.9437 21.4905Z" fill="#FFED01"/>
</g>
<defs>
<clipPath id="clip0">
<rect width="45" height="45" fill="white" transform="translate(0 0.396729)"/>
</clipPath>
</defs>
</svg>
