<svg width="66" height="67" viewBox="0 0 66 67" xmlns="http://www.w3.org/2000/svg">
<g clip-path="url(#clip0)">
<path d="M60.8625 41.4591C57.0641 41.69 52.0676 45.4893 47.2495 47.6716C41.3434 50.3429 32.1497 48.1924 32.1483 48.1924C33.5653 47.5306 39.3294 46.1572 40.4907 45.645C46.6605 42.9331 46.1368 37.2735 43.1983 37.321C39.317 37.3833 37.0376 38.3395 29.291 39.3953C23.4195 40.1941 16.4753 39.902 13.1445 41.1738C8.44277 42.97 0.870117 55.0497 0.870117 55.0497L12.5801 66.3966C12.5801 66.3966 19.8284 59.2576 23.3552 59.2576C31.3913 59.2576 31.7162 59.15 39.1782 58.7473C42.352 58.5741 43.0147 58.4472 44.8302 57.8322C54.503 54.5616 64.889 45.8529 65.0804 44.8064C65.5234 42.3801 62.8689 41.3343 60.8625 41.4591Z" fill="#171717"/>
<path d="M40.1812 18.8404C39.8918 18.8404 39.6562 19.0735 39.6562 19.3634V32.6986C39.6562 32.9883 39.8917 33.2207 40.1812 33.2207H44.9599C45.2496 33.2207 45.4856 32.9883 45.4856 32.6986V19.3634C45.4856 19.0733 45.2498 18.8404 44.9599 18.8404H40.1812Z" fill="#171717"/>
<path d="M48.9827 12.7785V32.6987C48.9827 32.9885 49.2175 33.2209 49.5076 33.2209H54.2876C54.5775 33.2209 54.8122 32.9885 54.8122 32.6987V12.7785C54.8122 12.639 54.7564 12.5044 54.6583 12.406C54.5597 12.3077 54.4267 12.2528 54.2877 12.2528L49.5078 12.253C49.2175 12.253 48.9827 12.4886 48.9827 12.7785Z" fill="#171717"/>
<path d="M30.8536 14.1754C30.5635 14.1754 30.329 14.4108 30.329 14.7013V32.6987C30.329 32.9884 30.5635 33.2208 30.8536 33.2208H35.6339C35.9238 33.2208 36.1581 32.9884 36.1581 32.6987V14.7013C36.1581 14.411 35.9238 14.1754 35.6339 14.1754H30.8536Z" fill="#171717"/>
<path d="M21.5267 19.7739C21.237 19.7739 21.0028 20.0061 21.0028 20.296V32.6988C21.0028 32.9885 21.237 33.2209 21.5267 33.2209H26.3068C26.5965 33.2209 26.8311 32.9885 26.8311 32.6988V20.296C26.8311 20.0061 26.5965 19.7739 26.3068 19.7739H21.5267Z" fill="#171717"/>
<path d="M22.6878 18.0099C22.826 18.1724 23.0238 18.2574 23.2223 18.2574C23.3821 18.2574 23.5434 18.203 23.6736 18.0897L33.2262 10.0145L41.6057 16.4242C41.8992 16.6507 42.3159 16.6075 42.5587 16.3267L50.2988 7.39493L51.383 8.33356C51.5717 8.49564 51.8345 8.54603 52.0698 8.46642C52.3055 8.38394 52.4807 8.18295 52.5286 7.93749L53.8202 1.22959C53.867 0.984307 53.7801 0.731496 53.5922 0.566901C53.4034 0.404636 53.1402 0.354253 52.9053 0.433861L46.4495 2.66881C46.2123 2.75183 46.0373 2.95282 45.9905 3.19828C45.9431 3.44374 46.0301 3.69512 46.2191 3.85774L47.3024 4.79941L41.574 11.4114L33.5486 5.27097C33.2877 5.07159 32.9225 5.07983 32.672 5.29445L21.1152 15.0624C20.9726 15.1842 20.8839 15.3533 20.8688 15.5392C20.8539 15.7248 20.9133 15.9089 21.0322 16.0511L22.6878 18.0099Z" fill="#171717"/>
</g>
<defs>
<clipPath id="clip0">
<rect width="66" height="66" fill="white" transform="translate(0 0.396729)"/>
</clipPath>
</defs>
</svg>
