<svg width="78" height="79" fill="yellow" viewBox="0 0 78 79" xmlns="http://www.w3.org/2000/svg">
<g clip-path="url(#clip0)">
<path d="M77.4177 37.8725C76.7215 37.0959 59.9751 18.8303 39.0001 18.8303C18.0251 18.8303 1.27885 37.0959 0.582486 37.8725C-0.194162 38.7406 -0.194162 40.0529 0.582486 40.9209C1.27885 41.6976 18.0254 59.9631 39.0001 59.9631C59.9748 59.9631 76.7213 41.6976 77.4177 40.9209C78.1942 40.0529 78.1942 38.7406 77.4177 37.8725ZM39.0001 55.3928C30.1807 55.3928 23.004 48.2161 23.004 39.3967C23.004 30.5774 30.1807 23.4006 39.0001 23.4006C47.8194 23.4006 54.9962 30.5774 54.9962 39.3967C54.9962 48.2161 47.8194 55.3928 39.0001 55.3928Z"/>
<path d="M41.2852 34.8264C41.2852 32.5275 42.4264 30.5052 44.1625 29.2613C42.6046 28.4638 40.867 27.9709 39 27.9709C32.7001 27.9709 27.5742 33.0969 27.5742 39.3967C27.5742 45.6966 32.7001 50.8225 39 50.8225C44.6404 50.8225 49.3088 46.704 50.2311 41.3227C45.6294 42.8042 41.2852 39.3239 41.2852 34.8264Z"/>
</g>
<defs>
<clipPath id="clip0">
<rect width="78" height="78"  transform="translate(0 0.396729)"/>
</clipPath>
</defs>
</svg>
