<svg width="31" height="34" viewBox="0 0 31 34" fill="none" xmlns="http://www.w3.org/2000/svg">
<path fill-rule="evenodd" clip-rule="evenodd" d="M19.9014 7.77647C20.0291 7.64842 20.1809 7.54683 20.3479 7.47751C20.515 7.40819 20.694 7.37251 20.8749 7.37251C21.0558 7.37251 21.2348 7.40819 21.4019 7.47751C21.5689 7.54683 21.7207 7.64842 21.8484 7.77647L30.0984 16.0265C30.2264 16.1542 30.328 16.3059 30.3974 16.473C30.4667 16.64 30.5023 16.8191 30.5023 17C30.5023 17.1808 30.4667 17.3599 30.3974 17.527C30.328 17.694 30.2264 17.8457 30.0984 17.9735L21.8484 26.2235C21.5902 26.4817 21.24 26.6267 20.8749 26.6267C20.5098 26.6267 20.1596 26.4817 19.9014 26.2235C19.6432 25.9653 19.4982 25.6151 19.4982 25.25C19.4982 24.8848 19.6432 24.5347 19.9014 24.2765L27.1806 17L19.9014 9.72347C19.7733 9.59575 19.6718 9.44401 19.6024 9.27696C19.5331 9.10991 19.4974 8.93083 19.4974 8.74997C19.4974 8.56911 19.5331 8.39003 19.6024 8.22298C19.6718 8.05593 19.7733 7.9042 19.9014 7.77647Z" fill="black"/>
<path fill-rule="evenodd" clip-rule="evenodd" d="M8.5 17C8.5 16.6353 8.64487 16.2856 8.90273 16.0277C9.16059 15.7699 9.51033 15.625 9.875 15.625H27.75C28.1147 15.625 28.4644 15.7699 28.7223 16.0277C28.9801 16.2856 29.125 16.6353 29.125 17C29.125 17.3647 28.9801 17.7144 28.7223 17.9723C28.4644 18.2301 28.1147 18.375 27.75 18.375H9.875C9.51033 18.375 9.16059 18.2301 8.90273 17.9723C8.64487 17.7144 8.5 17.3647 8.5 17ZM1.625 33.5C1.26033 33.5 0.910591 33.3551 0.652728 33.0973C0.394866 32.8394 0.25 32.4897 0.25 32.125L0.25 1.875C0.25 1.51033 0.394866 1.16059 0.652728 0.902725C0.910591 0.644863 1.26033 0.5 1.625 0.5C1.98967 0.5 2.33941 0.644863 2.59727 0.902725C2.85513 1.16059 3 1.51033 3 1.875L3 32.125C3 32.4897 2.85513 32.8394 2.59727 33.0973C2.33941 33.3551 1.98967 33.5 1.625 33.5Z" fill="black"/>
</svg>
