<svg width="85" height="85" viewBox="0 0 85 85" fill="none" xmlns="http://www.w3.org/2000/svg">
<g filter="url(#filter0_d)">
<path d="M64.0649 48.7577L57.9701 56.7279C56.7505 58.3226 54.8577 59.258 52.8502 59.258H41.5332C40.6433 59.258 39.9219 58.5366 39.9219 57.6467C39.9219 56.7568 40.6433 56.0354 41.5332 56.0354H51.3418C53.45 56.0354 55.2155 54.3101 55.1752 52.2022C55.1361 50.1596 53.468 48.5158 51.4161 48.5158H40.1367C36.8983 45.402 31.9008 45.0376 28.2449 47.6489L27.0312 48.5158V66.7776H37.7735H39.9219H55.0538C58.3435 66.7776 61.4074 65.1048 63.1863 62.3376L69.4747 52.5556C69.8177 52.0221 70 51.4013 70 50.767C70.0001 47.6038 65.9863 46.245 64.0649 48.7577Z" fill="#FFED01"/>
<path d="M22.1973 45.293H16.6113C15.7214 45.293 15 46.0144 15 46.9043V68.3887C15 69.2786 15.7214 70 16.6113 70H22.1973C23.0872 70 23.8086 69.2786 23.8086 68.3887V46.9043C23.8086 46.0144 23.0872 45.293 22.1973 45.293Z" fill="#FFED01"/>
<path d="M45.7558 23.9058C45.428 24.1571 45.2473 24.5377 45.1852 24.8678C45.0994 25.3232 45.208 25.7462 45.462 25.9454C45.5515 26.0155 45.6501 26.0845 45.7558 26.1523V23.9058Z" fill="#FFED01"/>
<path d="M46.9043 41.8555C54.3084 41.8555 60.3321 35.8318 60.3321 28.4278C60.3321 21.0237 54.3084 15 46.9043 15C39.5003 15 33.4766 21.0237 33.4766 28.4278C33.4766 35.8318 39.5003 41.8555 46.9043 41.8555ZM42.8396 32.818C43.1642 32.3217 43.8301 32.1821 44.3266 32.5071C44.9068 32.8866 45.2704 33.0512 45.756 33.1194V28.5829C45.0699 28.2685 44.557 27.9658 44.1363 27.6357C43.2448 26.9365 42.8378 25.7235 43.074 24.4698C43.3314 23.1036 44.2824 22.0166 45.5556 21.6331C45.6231 21.6128 45.6898 21.5942 45.756 21.5767V20.9082C45.756 20.315 46.237 19.834 46.8302 19.834C47.4234 19.834 47.9044 20.315 47.9044 20.9082V21.459C48.9474 21.6395 49.6845 22.153 50.0416 22.5628C50.4313 23.0101 50.3845 23.6887 49.9372 24.0783C49.4922 24.4659 48.8186 24.4219 48.4278 23.9811C48.4033 23.9563 48.2326 23.792 47.9044 23.6709V27.1419C48.0951 27.2127 48.2857 27.2814 48.4727 27.3475C50.361 28.015 51.4112 29.763 51.0862 31.6972C50.8334 33.2005 49.6893 34.7252 47.9044 35.1779V35.9473C47.9044 36.5405 47.4234 37.0215 46.8302 37.0215C46.237 37.0215 45.756 36.5405 45.756 35.9473V35.2811C44.8887 35.2061 44.1697 34.9718 43.1505 34.305C42.654 33.9802 42.5148 33.3145 42.8396 32.818Z" fill="#FFED01"/>
<path d="M48.9673 31.3412C49.0379 30.9213 49.0668 29.9207 47.9043 29.4312V32.8817C48.5085 32.5355 48.8695 31.9235 48.9673 31.3412Z" fill="#FFED01"/>
</g>
<defs>
<filter id="filter0_d" x="0" y="0" width="85" height="85" filterUnits="userSpaceOnUse" color-interpolation-filters="sRGB">
<feFlood flood-opacity="0" result="BackgroundImageFix"/>
<feColorMatrix in="SourceAlpha" type="matrix" values="0 0 0 0 0 0 0 0 0 0 0 0 0 0 0 0 0 0 127 0"/>
<feOffset/>
<feGaussianBlur stdDeviation="7.5"/>
<feColorMatrix type="matrix" values="0 0 0 0 1 0 0 0 0 0.929412 0 0 0 0 0.00392157 0 0 0 0.59 0"/>
<feBlend mode="normal" in2="BackgroundImageFix" result="effect1_dropShadow"/>
<feBlend mode="normal" in="SourceGraphic" in2="effect1_dropShadow" result="shape"/>
</filter>
</defs>
</svg>
