<svg width="86" height="84" viewBox="0 0 86 84" fill="none" xmlns="http://www.w3.org/2000/svg">
<g filter="url(#filter0_d)">
<path d="M46.6714 45.2437C46.1969 45.2437 45.8105 45.6259 45.8105 46.1013V67.9678C45.8105 68.4429 46.1966 68.824 46.6714 68.824H54.5073C54.9824 68.824 55.3693 68.4429 55.3693 67.9678V46.1013C55.3693 45.6256 54.9827 45.2437 54.5073 45.2437H46.6714Z" fill="#FFED01"/>
<path d="M61.1038 35.3031V67.9677C61.1038 68.4428 61.4889 68.8238 61.9646 68.8238H69.8026C70.278 68.8238 70.6628 68.4428 70.6628 67.9677V35.3031C70.6628 35.0743 70.5714 34.8535 70.4106 34.6921C70.2489 34.531 70.0307 34.441 69.8029 34.441L61.9649 34.4413C61.4889 34.4413 61.1038 34.8277 61.1038 35.3031Z" fill="#FFED01"/>
<path d="M31.3764 37.5941C30.9007 37.5941 30.5161 37.9801 30.5161 38.4564V67.9681C30.5161 68.4432 30.9007 68.8242 31.3764 68.8242H39.2149C39.6904 68.8242 40.0746 68.4432 40.0746 67.9681V38.4564C40.0746 37.9804 39.6904 37.5941 39.2149 37.5941H31.3764Z" fill="#FFED01"/>
<path d="M16.0825 46.7738C15.6074 46.7738 15.2234 47.1545 15.2234 47.63V67.9677C15.2234 68.4428 15.6074 68.8238 16.0825 68.8238H23.9207C24.3958 68.8238 24.7804 68.4428 24.7804 67.9677V47.63C24.7804 47.1545 24.3958 46.7738 23.9207 46.7738H16.0825Z" fill="#FFED01"/>
<path d="M17.9864 43.8816C18.2131 44.1479 18.5374 44.2873 18.8628 44.2873C19.1248 44.2873 19.3894 44.1982 19.6029 44.0124L35.267 30.7709L49.0075 41.2814C49.4888 41.6527 50.1721 41.5818 50.5701 41.1214L63.2622 26.4754L65.04 28.0145C65.3493 28.2803 65.7803 28.3629 66.1661 28.2324C66.5527 28.0972 66.8399 27.7676 66.9184 27.3651L69.0365 16.3656C69.1132 15.9634 68.9706 15.5489 68.6625 15.279C68.3529 15.0129 67.9213 14.9303 67.5362 15.0608L56.9501 18.7256C56.5611 18.8618 56.2742 19.1914 56.1974 19.5939C56.1198 19.9964 56.2624 20.4086 56.5723 20.6752L58.3487 22.2193L48.9554 33.0615L35.7956 22.9926C35.3679 22.6657 34.769 22.6792 34.3582 23.0311L15.4077 39.0484C15.1739 39.248 15.0284 39.5252 15.0037 39.8301C14.9793 40.1344 15.0766 40.4364 15.2715 40.6695L17.9864 43.8816Z" fill="#FFED01"/>
</g>
<defs>
<filter id="filter0_d" x="0" y="0" width="85.6628" height="83.8242" filterUnits="userSpaceOnUse" color-interpolation-filters="sRGB">
<feFlood flood-opacity="0" result="BackgroundImageFix"/>
<feColorMatrix in="SourceAlpha" type="matrix" values="0 0 0 0 0 0 0 0 0 0 0 0 0 0 0 0 0 0 127 0"/>
<feOffset/>
<feGaussianBlur stdDeviation="7.5"/>
<feColorMatrix type="matrix" values="0 0 0 0 1 0 0 0 0 0.929412 0 0 0 0 0.00392157 0 0 0 0.59 0"/>
<feBlend mode="normal" in2="BackgroundImageFix" result="effect1_dropShadow"/>
<feBlend mode="normal" in="SourceGraphic" in2="effect1_dropShadow" result="shape"/>
</filter>
</defs>
</svg>
