<svg width="94" height="94" viewBox="0 0 94 94" fill="none" xmlns="http://www.w3.org/2000/svg">
<g filter="url(#filter0_d)">
<path d="M67.0001 69.6666H59.0001C57.8961 69.6666 57.0001 68.7706 57.0001 67.6666V63.7839C57.0001 62.6986 56.3548 61.8053 55.8134 61.2479C53.5521 58.9146 52.5868 55.7306 53.1654 52.5066C53.8854 48.4986 57.1868 45.2053 61.1921 44.4959C64.1468 43.9626 67.1521 44.7653 69.4241 46.6719C71.6988 48.5786 73.0001 51.3706 73.0001 54.3359C73.0001 57.0079 71.9468 59.5173 70.0348 61.4026C69.5628 61.8693 69.0001 62.6213 69.0001 63.5573V67.6693C69.0001 68.7706 68.1041 69.6666 67.0001 69.6666Z" fill="#FFED01"/>
<path d="M77 79H49C47.896 79 47 78.104 47 77V72.0214C47 69.672 48.7573 67.6827 51.088 67.392L59.4187 66.3494L66.3333 66.3334L74.912 67.3894C77.2427 67.68 79 69.672 79 72.0214V77C79 78.104 78.104 79 77 79Z" fill="#FFED01"/>
<path d="M47.6667 20.3333H44.7334C43.8534 17.2667 41.0267 15 37.6667 15C34.3067 15 31.4801 17.2667 30.6001 20.3333H27.6667C26.5734 20.3333 25.6667 21.24 25.6667 22.3333V26.3333C25.6667 28.8933 27.7734 31 30.3334 31H45.0001C47.5601 31 49.6667 28.8933 49.6667 26.3333V22.3333C49.6667 21.24 48.7601 20.3333 47.6667 20.3333Z" fill="#FFED01"/>
<path d="M53 23H52.3333V26.3333C52.3333 30.3867 49.0533 33.6667 45 33.6667H30.3333C26.28 33.6667 23 30.3867 23 26.3333V23H22.3333C18.28 23 15 26.28 15 30.3333V63.6667C15 67.72 18.28 71 22.3333 71H41.72C42.1733 66.6267 45.48 63 49.8533 62.2C49.48 61.6133 49.16 60.9733 48.8933 60.3333H25C23.9067 60.3333 23 59.4267 23 58.3333C23 57.24 23.9067 56.3333 25 56.3333H47.8C47.5867 54.8133 47.6133 53.24 47.88 51.6667H25C23.9067 51.6667 23 50.76 23 49.6667C23 48.5733 23.9067 47.6667 25 47.6667H49.2133C51.32 43.3467 55.4533 40.0933 60.2533 39.24H60.3333V30.3333C60.3333 26.28 57.0533 23 53 23ZM50.3333 43H25C23.9067 43 23 42.0933 23 41C23 39.9067 23.9067 39 25 39H50.3333C51.4267 39 52.3333 39.9067 52.3333 41C52.3333 42.0933 51.4267 43 50.3333 43Z" fill="#FFED01"/>
</g>
<defs>
<filter id="filter0_d" x="0" y="0" width="94" height="94" filterUnits="userSpaceOnUse" color-interpolation-filters="sRGB">
<feFlood flood-opacity="0" result="BackgroundImageFix"/>
<feColorMatrix in="SourceAlpha" type="matrix" values="0 0 0 0 0 0 0 0 0 0 0 0 0 0 0 0 0 0 127 0"/>
<feOffset/>
<feGaussianBlur stdDeviation="7.5"/>
<feColorMatrix type="matrix" values="0 0 0 0 1 0 0 0 0 0.929412 0 0 0 0 0.00392157 0 0 0 0.59 0"/>
<feBlend mode="normal" in2="BackgroundImageFix" result="effect1_dropShadow"/>
<feBlend mode="normal" in="SourceGraphic" in2="effect1_dropShadow" result="shape"/>
</filter>
</defs>
</svg>
