<svg width="91" height="90" viewBox="0 0 91 90" fill="none" xmlns="http://www.w3.org/2000/svg">
<g filter="url(#filter0_d)">
<path d="M66.8417 45.5362H76V34.8318H18.6717C17.3661 34.8318 16.1573 34.4539 15.1035 33.8394V65.1611C15.1035 70.0795 19.1054 74.0815 24.0239 74.0815H76V63.377H66.8417C61.9233 63.377 57.9214 59.3751 57.9214 54.4566C57.9214 49.5382 61.9233 45.5362 66.8417 45.5362ZM45.4328 52.6725C48.3842 52.6725 50.7851 55.0734 50.7851 58.0248C50.7851 60.3476 49.289 62.3094 47.2169 63.0484V66.9452H43.6487V63.0484C41.5766 62.3094 40.0806 60.3476 40.0806 58.0248H43.6487C43.6487 59.0091 44.4485 59.8089 45.4328 59.8089C46.4172 59.8089 47.2169 59.0091 47.2169 58.0248C47.2169 57.0404 46.4172 56.2407 45.4328 56.2407C42.4815 56.2407 40.0806 53.8398 40.0806 50.8885C40.0806 48.5656 41.5766 46.6038 43.6487 45.8649V41.9681H47.2169V45.8649C49.289 46.6038 50.7851 48.5656 50.7851 50.8885H47.2169C47.2169 49.9041 46.4172 49.1044 45.4328 49.1044C44.4485 49.1044 43.6487 49.9041 43.6487 50.8885C43.6487 51.8728 44.4485 52.6725 45.4328 52.6725Z" fill="#FFED01"/>
<path d="M66.8417 49.104C63.8904 49.104 61.4895 51.5049 61.4895 54.4562C61.4895 57.4076 63.8904 59.8085 66.8417 59.8085H76V49.104H66.8417ZM68.6258 56.2403H65.0577V52.6722H68.6258V56.2403Z" fill="#FFED01"/>
<path d="M38.2964 15.9194L26.0225 31.2634H50.5704L38.2964 15.9194Z" fill="#FFED01"/>
<path d="M52.5692 15.9194L47.718 21.9845L55.1416 31.2634H64.8431L52.5692 15.9194Z" fill="#FFED01"/>
<path d="M63.7046 24.127L69.414 31.2633H72.1938V24.127H63.7046Z" fill="#FFED01"/>
<path d="M18.6717 24.127C16.701 24.127 15.1035 25.7244 15.1035 27.6951C15.1035 29.6657 16.701 31.2633 18.6717 31.2633H21.4515L27.1609 24.127H18.6717Z" fill="#FFED01"/>
</g>
<defs>
<filter id="filter0_d" x="0.103516" y="0.919434" width="90.8965" height="88.162" filterUnits="userSpaceOnUse" color-interpolation-filters="sRGB">
<feFlood flood-opacity="0" result="BackgroundImageFix"/>
<feColorMatrix in="SourceAlpha" type="matrix" values="0 0 0 0 0 0 0 0 0 0 0 0 0 0 0 0 0 0 127 0"/>
<feOffset/>
<feGaussianBlur stdDeviation="7.5"/>
<feColorMatrix type="matrix" values="0 0 0 0 1 0 0 0 0 0.929412 0 0 0 0 0.00392157 0 0 0 0.59 0"/>
<feBlend mode="normal" in2="BackgroundImageFix" result="effect1_dropShadow"/>
<feBlend mode="normal" in="SourceGraphic" in2="effect1_dropShadow" result="shape"/>
</filter>
</defs>
</svg>
